<svg width="430" height="100" viewBox="0 0 430 100" fill="none" xmlns="http://www.w3.org/2000/svg">
<g clip-path="url(#clip0_1_93)">
<mask id="mask0_1_93" style="mask-type:luminance" maskUnits="userSpaceOnUse" x="0" y="0" width="100" height="100">
<path d="M100 50C100 22.3858 77.6142 0 50 0C22.3858 0 0 22.3858 0 50C0 77.6142 22.3858 100 50 100C77.6142 100 100 77.6142 100 50Z" fill="white"/>
</mask>
<g mask="url(#mask0_1_93)">
<path d="M100 0H0V100H100V0Z" fill="#C20D90"/>
<path d="M29.2667 127.497L88.8011 82.1546C97.0211 75.8941 98.6096 64.1554 92.3491 55.9354L47.0066 -3.59897C40.7461 -11.819 29.0074 -13.4074 20.7874 -7.14695L-38.747 38.1955C-46.967 44.456 -48.5554 56.1948 -42.295 64.4147L3.04752 123.949C9.30801 132.169 21.0467 133.758 29.2667 127.497Z" fill="#F0AB3D"/>
<path d="M47.1363 28.8939C50.7828 32.3033 54.3107 32.1847 57.7201 28.5383" stroke="black" stroke-width="2.77778" stroke-linecap="round"/>
<path d="M21.917 29.7412C25.5635 33.1506 29.0914 33.0321 32.5008 29.3856" stroke="black" stroke-width="2.77778" stroke-linecap="round"/>
<path d="M48.9373 52.3751C52.653 52.2503 55.5639 49.1369 55.4391 45.4212C55.3142 41.7055 52.2008 38.7946 48.4852 38.9194C44.7695 39.0443 41.8585 42.1576 41.9834 45.8733C42.1082 49.589 45.2216 52.5 48.9373 52.3751Z" fill="black"/>
</g>
</g>
<g clip-path="url(#clip1_1_93)">
<mask id="mask1_1_93" style="mask-type:luminance" maskUnits="userSpaceOnUse" x="110" y="0" width="100" height="100">
<path d="M210 50C210 22.3858 187.614 0 160 0C132.386 0 110 22.3858 110 50C110 77.6142 132.386 100 160 100C187.614 100 210 77.6142 210 50Z" fill="white"/>
</mask>
<g mask="url(#mask1_1_93)">
<path d="M210 0H110V100H210V0Z" fill="#C20D90"/>
<path d="M209.537 141.05L241.391 68.807C245.79 58.8322 241.269 47.1807 231.294 42.7825L159.051 10.928C149.076 6.52975 137.425 11.0504 133.026 21.0251L101.172 93.2685C96.7736 103.243 101.294 114.895 111.269 119.293L183.512 151.147C193.487 155.546 205.139 151.025 209.537 141.05Z" fill="#146A7C"/>
<path d="M191.543 57.7892C191.777 56.273 190.969 54.8898 189.737 54.6998C188.505 54.5098 187.317 55.5848 187.083 57.101C186.849 58.6172 187.658 60.0003 188.89 60.1904C190.121 60.3804 191.309 59.3054 191.543 57.7892Z" fill="white"/>
<path d="M157.86 52.5917C158.094 51.0755 157.285 49.6923 156.054 49.5023C154.822 49.3122 153.634 50.3873 153.4 51.9035C153.166 53.4196 153.975 54.8028 155.207 54.9929C156.438 55.1829 157.626 54.1079 157.86 52.5917Z" fill="white"/>
<path d="M176.054 71.4819C178.652 71.8828 181.083 70.1015 181.484 67.5032C181.885 64.9049 180.104 62.4735 177.505 62.0726C174.907 61.6717 172.476 63.453 172.075 66.0513C171.674 68.6496 173.455 71.081 176.054 71.4819Z" fill="white"/>
</g>
</g>
<g clip-path="url(#clip2_1_93)">
<mask id="mask2_1_93" style="mask-type:luminance" maskUnits="userSpaceOnUse" x="220" y="0" width="100" height="100">
<path d="M320 50C320 22.3858 297.614 0 270 0C242.386 0 220 22.3858 220 50C220 77.6142 242.386 100 270 100C297.614 100 320 77.6142 320 50Z" fill="white"/>
</mask>
<g mask="url(#mask2_1_93)">
<path d="M320 0H220V100H320V0Z" fill="#F0AB3D"/>
<path d="M283.274 -34.4472C250.151 -25.7291 230.368 8.18943 239.086 41.3119C247.804 74.4343 281.722 94.2179 314.845 85.4998C347.967 76.7816 367.751 42.8631 359.033 9.74067C350.315 -23.3818 316.396 -43.1654 283.274 -34.4472Z" fill="#92A1C6"/>
<path d="M294.498 51.0532L288.452 58.4689L295.867 64.5151" stroke="black" stroke-width="2.77778" stroke-linecap="round"/>
<path d="M258.223 54.7436L265.639 60.7897L259.593 68.2055" stroke="black" stroke-width="2.77778" stroke-linecap="round"/>
<path d="M272.939 74.1549C278.185 70.8291 283.712 70.2668 289.52 72.468" stroke="black" stroke-width="2.77778" stroke-linecap="round"/>
</g>
</g>
<g clip-path="url(#clip3_1_93)">
<mask id="mask3_1_93" style="mask-type:luminance" maskUnits="userSpaceOnUse" x="330" y="0" width="100" height="100">
<path d="M430 50C430 22.3858 407.614 0 380 0C352.386 0 330 22.3858 330 50C330 77.6142 352.386 100 380 100C407.614 100 430 77.6142 430 50Z" fill="white"/>
</mask>
<g mask="url(#mask3_1_93)">
<path d="M430 0H330V100H430V0Z" fill="#C20D90"/>
<path d="M462.232 63.055L436.305 -4.10623C432.725 -13.3793 422.306 -17.9945 413.033 -14.4148L345.872 11.5123C336.599 15.0921 331.983 25.5114 335.563 34.7844L361.49 101.946C365.07 111.219 375.489 115.834 384.762 112.254L451.924 86.327C461.197 82.7472 465.812 72.328 462.232 63.055Z" fill="#146A7C"/>
<path d="M399.561 29.247L395.894 33.9398L400.587 37.607" stroke="white" stroke-width="2.77778" stroke-linecap="round"/>
<path d="M373.404 32.4558L378.097 36.123L374.429 40.8158" stroke="white" stroke-width="2.77778" stroke-linecap="round"/>
<path d="M382.966 47.811C388.818 49.8917 394.333 49.2152 399.509 45.7817" stroke="white" stroke-width="2.77778" stroke-linecap="round"/>
</g>
</g>
<defs>
<clipPath id="clip0_1_93">
<rect width="100" height="100" fill="white"/>
</clipPath>
<clipPath id="clip1_1_93">
<rect width="100" height="100" fill="white" transform="translate(110)"/>
</clipPath>
<clipPath id="clip2_1_93">
<rect width="100" height="100" fill="white" transform="translate(220)"/>
</clipPath>
<clipPath id="clip3_1_93">
<rect width="100" height="100" fill="white" transform="translate(330)"/>
</clipPath>
</defs>
</svg>
